<?xml version="1.0" standalone="no"?><!DOCTYPE svg PUBLIC "-//W3C//DTD SVG 1.1//EN" "http://www.w3.org/Graphics/SVG/1.1/DTD/svg11.dtd"><svg t="1506476824216" class="icon" style="" viewBox="0 0 1024 1024" version="1.1" xmlns="http://www.w3.org/2000/svg" p-id="2729" xmlns:xlink="http://www.w3.org/1999/xlink" width="64" height="64"><defs><style type="text/css"></style></defs><path d="M905.846154 1023.960615 118.153846 1023.960615c-65.154462 0-118.153846-53.000615-118.153846-118.153846L0 118.114462c0-65.154462 53.000615-118.153846 118.153846-118.153846l787.692308 0c65.154462 0 118.153846 53.000615 118.153846 118.153846l0 787.692308C1024 970.961231 971.000615 1023.960615 905.846154 1023.960615zM118.153846 78.729846c-21.692308 0-39.384615 17.692308-39.384615 39.384615l0 787.692308c0 21.692308 17.692308 39.384615 39.384615 39.384615l787.692308 0c21.692308 0 39.384615-17.692308 39.384615-39.384615L945.230769 118.114462c0-21.692308-17.692308-39.384615-39.384615-39.384615L118.153846 78.729846z" p-id="2730"></path></svg>